<svg width="1440" height="900" viewBox="0 0 1440 900" fill="none" xmlns="http://www.w3.org/2000/svg">
<rect width="1440" height="900" fill="#EFF0F3"/>
<g clip-path="url(#clip0_184_180)">
<circle cx="50.5" cy="47.5" r="1.5" fill="#D2D6DB"/>
<circle cx="103.5" cy="47.5" r="1.5" fill="#D2D6DB"/>
<circle cx="156.5" cy="47.5" r="1.5" fill="#D2D6DB"/>
<circle cx="209.5" cy="47.5" r="1.5" fill="#D2D6DB"/>
<circle cx="262.5" cy="47.5" r="1.5" fill="#D2D6DB"/>
<circle cx="315.5" cy="47.5" r="1.5" fill="#D2D6DB"/>
<circle cx="368.5" cy="47.5" r="1.5" fill="#D2D6DB"/>
<circle cx="421.5" cy="47.5" r="1.5" fill="#D2D6DB"/>
<circle cx="474.5" cy="47.5" r="1.5" fill="#D2D6DB"/>
<circle cx="527.5" cy="47.5" r="1.5" fill="#D2D6DB"/>
<circle cx="580.5" cy="47.5" r="1.5" fill="#D2D6DB"/>
<circle cx="633.5" cy="47.5" r="1.5" fill="#D2D6DB"/>
<circle cx="686.5" cy="47.5" r="1.5" fill="#D2D6DB"/>
<circle cx="739.5" cy="47.5" r="1.5" fill="#D2D6DB"/>
<circle cx="792.5" cy="47.5" r="1.5" fill="#D2D6DB"/>
<circle cx="845.5" cy="47.5" r="1.5" fill="#D2D6DB"/>
<circle cx="898.5" cy="47.5" r="1.5" fill="#D2D6DB"/>
<circle cx="951.5" cy="47.5" r="1.5" fill="#D2D6DB"/>
<circle cx="1004.5" cy="47.5" r="1.5" fill="#D2D6DB"/>
<circle cx="1057.5" cy="47.5" r="1.5" fill="#D2D6DB"/>
<circle cx="1110.5" cy="47.5" r="1.5" fill="#D2D6DB"/>
<circle cx="1163.5" cy="47.5" r="1.5" fill="#D2D6DB"/>
<circle cx="1216.5" cy="47.5" r="1.5" fill="#D2D6DB"/>
<circle cx="1269.5" cy="47.5" r="1.5" fill="#D2D6DB"/>
<circle cx="1322.5" cy="47.5" r="1.5" fill="#D2D6DB"/>
<circle cx="1375.5" cy="47.5" r="1.5" fill="#D2D6DB"/>
<circle cx="50.5" cy="100.5" r="1.5" fill="#D2D6DB"/>
<circle cx="103.5" cy="100.5" r="1.5" fill="#D2D6DB"/>
<circle cx="156.5" cy="100.5" r="1.5" fill="#D2D6DB"/>
<circle cx="209.5" cy="100.5" r="1.5" fill="#D2D6DB"/>
<circle cx="262.5" cy="100.5" r="1.5" fill="#D2D6DB"/>
<circle cx="315.5" cy="100.5" r="1.5" fill="#D2D6DB"/>
<circle cx="368.5" cy="100.5" r="1.5" fill="#D2D6DB"/>
<circle cx="421.5" cy="100.5" r="1.5" fill="#D2D6DB"/>
<circle cx="474.5" cy="100.5" r="1.5" fill="#D2D6DB"/>
<circle cx="527.5" cy="100.5" r="1.5" fill="#D2D6DB"/>
<circle cx="580.5" cy="100.5" r="1.5" fill="#D2D6DB"/>
<circle cx="633.5" cy="100.5" r="1.5" fill="#D2D6DB"/>
<circle cx="686.5" cy="100.5" r="1.5" fill="#D2D6DB"/>
<circle cx="739.5" cy="100.5" r="1.5" fill="#D2D6DB"/>
<circle cx="792.5" cy="100.5" r="1.5" fill="#D2D6DB"/>
<circle cx="845.5" cy="100.5" r="1.5" fill="#D2D6DB"/>
<circle cx="898.5" cy="100.5" r="1.5" fill="#D2D6DB"/>
<circle cx="951.5" cy="100.5" r="1.5" fill="#D2D6DB"/>
<circle cx="1004.5" cy="100.5" r="1.5" fill="#D2D6DB"/>
<circle cx="1057.5" cy="100.5" r="1.5" fill="#D2D6DB"/>
<circle cx="1110.5" cy="100.5" r="1.5" fill="#D2D6DB"/>
<circle cx="1163.5" cy="100.5" r="1.5" fill="#D2D6DB"/>
<circle cx="1216.5" cy="100.5" r="1.5" fill="#D2D6DB"/>
<circle cx="1269.5" cy="100.5" r="1.5" fill="#D2D6DB"/>
<circle cx="1322.5" cy="100.5" r="1.5" fill="#D2D6DB"/>
<circle cx="1375.5" cy="100.5" r="1.5" fill="#D2D6DB"/>
<circle cx="50.5" cy="153.5" r="1.5" fill="#D2D6DB"/>
<circle cx="103.5" cy="153.5" r="1.5" fill="#D2D6DB"/>
<circle cx="156.5" cy="153.5" r="1.5" fill="#D2D6DB"/>
<circle cx="209.5" cy="153.5" r="1.5" fill="#D2D6DB"/>
<circle cx="262.5" cy="153.5" r="1.5" fill="#D2D6DB"/>
<circle cx="315.5" cy="153.5" r="1.5" fill="#D2D6DB"/>
<circle cx="368.5" cy="153.5" r="1.5" fill="#D2D6DB"/>
<circle cx="421.5" cy="153.5" r="1.5" fill="#D2D6DB"/>
<circle cx="474.5" cy="153.5" r="1.5" fill="#D2D6DB"/>
<circle cx="527.5" cy="153.5" r="1.5" fill="#D2D6DB"/>
<circle cx="580.5" cy="153.5" r="1.5" fill="#D2D6DB"/>
<circle cx="633.5" cy="153.5" r="1.5" fill="#D2D6DB"/>
<circle cx="686.5" cy="153.5" r="1.5" fill="#D2D6DB"/>
<circle cx="739.5" cy="153.5" r="1.5" fill="#D2D6DB"/>
<circle cx="792.5" cy="153.5" r="1.5" fill="#D2D6DB"/>
<circle cx="845.5" cy="153.5" r="1.5" fill="#D2D6DB"/>
<circle cx="898.5" cy="153.5" r="1.5" fill="#D2D6DB"/>
<circle cx="951.5" cy="153.5" r="1.5" fill="#D2D6DB"/>
<circle cx="1004.5" cy="153.5" r="1.5" fill="#D2D6DB"/>
<circle cx="1057.5" cy="153.5" r="1.5" fill="#D2D6DB"/>
<circle cx="1110.5" cy="153.5" r="1.5" fill="#D2D6DB"/>
<circle cx="1163.5" cy="153.5" r="1.5" fill="#D2D6DB"/>
<circle cx="1216.5" cy="153.5" r="1.5" fill="#D2D6DB"/>
<circle cx="1269.5" cy="153.5" r="1.5" fill="#D2D6DB"/>
<circle cx="1322.5" cy="153.5" r="1.5" fill="#D2D6DB"/>
<circle cx="1375.5" cy="153.5" r="1.5" fill="#D2D6DB"/>
<circle cx="50.5" cy="206.5" r="1.5" fill="#D2D6DB"/>
<circle cx="103.5" cy="206.5" r="1.5" fill="#D2D6DB"/>
<circle cx="156.5" cy="206.5" r="1.5" fill="#D2D6DB"/>
<circle cx="209.5" cy="206.5" r="1.5" fill="#D2D6DB"/>
<circle cx="262.5" cy="206.5" r="1.5" fill="#D2D6DB"/>
<circle cx="315.5" cy="206.5" r="1.5" fill="#D2D6DB"/>
<circle cx="368.5" cy="206.5" r="1.5" fill="#D2D6DB"/>
<circle cx="421.5" cy="206.5" r="1.5" fill="#D2D6DB"/>
<circle cx="474.5" cy="206.5" r="1.5" fill="#D2D6DB"/>
<circle cx="527.5" cy="206.5" r="1.5" fill="#D2D6DB"/>
<circle cx="580.5" cy="206.5" r="1.5" fill="#D2D6DB"/>
<circle cx="633.5" cy="206.5" r="1.5" fill="#D2D6DB"/>
<circle cx="686.5" cy="206.5" r="1.5" fill="#D2D6DB"/>
<circle cx="739.5" cy="206.5" r="1.5" fill="#D2D6DB"/>
<circle cx="792.5" cy="206.5" r="1.5" fill="#D2D6DB"/>
<circle cx="845.5" cy="206.5" r="1.5" fill="#D2D6DB"/>
<circle cx="898.5" cy="206.5" r="1.5" fill="#D2D6DB"/>
<circle cx="951.5" cy="206.5" r="1.5" fill="#D2D6DB"/>
<circle cx="1004.5" cy="206.5" r="1.5" fill="#D2D6DB"/>
<circle cx="1057.5" cy="206.5" r="1.5" fill="#D2D6DB"/>
<circle cx="1110.5" cy="206.5" r="1.5" fill="#D2D6DB"/>
<circle cx="1163.5" cy="206.5" r="1.5" fill="#D2D6DB"/>
<circle cx="1216.5" cy="206.5" r="1.5" fill="#D2D6DB"/>
<circle cx="1269.5" cy="206.5" r="1.5" fill="#D2D6DB"/>
<circle cx="1322.5" cy="206.5" r="1.5" fill="#D2D6DB"/>
<circle cx="1375.5" cy="206.5" r="1.5" fill="#D2D6DB"/>
<circle cx="50.5" cy="259.5" r="1.5" fill="#D2D6DB"/>
<circle cx="103.5" cy="259.5" r="1.5" fill="#D2D6DB"/>
<circle cx="156.5" cy="259.5" r="1.5" fill="#D2D6DB"/>
<circle cx="209.5" cy="259.5" r="1.5" fill="#D2D6DB"/>
<circle cx="262.5" cy="259.5" r="1.5" fill="#D2D6DB"/>
<circle cx="315.5" cy="259.5" r="1.5" fill="#D2D6DB"/>
<circle cx="368.5" cy="259.5" r="1.5" fill="#D2D6DB"/>
<circle cx="421.5" cy="259.5" r="1.5" fill="#D2D6DB"/>
<circle cx="474.5" cy="259.5" r="1.5" fill="#D2D6DB"/>
<circle cx="527.5" cy="259.5" r="1.5" fill="#D2D6DB"/>
<circle cx="580.5" cy="259.5" r="1.5" fill="#D2D6DB"/>
<circle cx="633.5" cy="259.5" r="1.5" fill="#D2D6DB"/>
<circle cx="686.5" cy="259.5" r="1.5" fill="#D2D6DB"/>
<circle cx="739.5" cy="259.5" r="1.5" fill="#D2D6DB"/>
<circle cx="792.5" cy="259.5" r="1.5" fill="#D2D6DB"/>
<circle cx="845.5" cy="259.5" r="1.5" fill="#D2D6DB"/>
<circle cx="898.5" cy="259.5" r="1.5" fill="#D2D6DB"/>
<circle cx="951.5" cy="259.5" r="1.5" fill="#D2D6DB"/>
<circle cx="1004.5" cy="259.5" r="1.5" fill="#D2D6DB"/>
<circle cx="1057.5" cy="259.5" r="1.5" fill="#D2D6DB"/>
<circle cx="1110.5" cy="259.5" r="1.5" fill="#D2D6DB"/>
<circle cx="1163.5" cy="259.5" r="1.5" fill="#D2D6DB"/>
<circle cx="1216.5" cy="259.5" r="1.5" fill="#D2D6DB"/>
<circle cx="1269.5" cy="259.5" r="1.5" fill="#D2D6DB"/>
<circle cx="1322.5" cy="259.5" r="1.5" fill="#D2D6DB"/>
<circle cx="1375.5" cy="259.5" r="1.5" fill="#D2D6DB"/>
<circle cx="50.5" cy="312.5" r="1.5" fill="#D2D6DB"/>
<circle cx="103.5" cy="312.5" r="1.5" fill="#D2D6DB"/>
<circle cx="156.5" cy="312.5" r="1.5" fill="#D2D6DB"/>
<circle cx="209.5" cy="312.5" r="1.5" fill="#D2D6DB"/>
<circle cx="262.5" cy="312.5" r="1.5" fill="#D2D6DB"/>
<circle cx="315.5" cy="312.5" r="1.5" fill="#D2D6DB"/>
<circle cx="368.5" cy="312.5" r="1.5" fill="#D2D6DB"/>
<circle cx="421.5" cy="312.5" r="1.5" fill="#D2D6DB"/>
<circle cx="474.5" cy="312.5" r="1.5" fill="#D2D6DB"/>
<circle cx="527.5" cy="312.5" r="1.5" fill="#D2D6DB"/>
<circle cx="580.5" cy="312.5" r="1.5" fill="#D2D6DB"/>
<circle cx="633.5" cy="312.5" r="1.5" fill="#D2D6DB"/>
<circle cx="686.5" cy="312.5" r="1.5" fill="#D2D6DB"/>
<circle cx="739.5" cy="312.5" r="1.5" fill="#D2D6DB"/>
<circle cx="792.5" cy="312.5" r="1.5" fill="#D2D6DB"/>
<circle cx="845.5" cy="312.5" r="1.5" fill="#D2D6DB"/>
<circle cx="898.5" cy="312.5" r="1.5" fill="#D2D6DB"/>
<circle cx="951.5" cy="312.5" r="1.5" fill="#D2D6DB"/>
<circle cx="1004.5" cy="312.5" r="1.5" fill="#D2D6DB"/>
<circle cx="1057.5" cy="312.5" r="1.5" fill="#D2D6DB"/>
<circle cx="1110.5" cy="312.5" r="1.5" fill="#D2D6DB"/>
<circle cx="1163.5" cy="312.5" r="1.5" fill="#D2D6DB"/>
<circle cx="1216.5" cy="312.5" r="1.5" fill="#D2D6DB"/>
<circle cx="1269.5" cy="312.5" r="1.5" fill="#D2D6DB"/>
<circle cx="1322.5" cy="312.5" r="1.5" fill="#D2D6DB"/>
<circle cx="1375.5" cy="312.5" r="1.5" fill="#D2D6DB"/>
<circle cx="50.5" cy="365.5" r="1.5" fill="#D2D6DB"/>
<circle cx="103.5" cy="365.5" r="1.5" fill="#D2D6DB"/>
<circle cx="156.5" cy="365.5" r="1.5" fill="#D2D6DB"/>
<circle cx="209.5" cy="365.5" r="1.5" fill="#D2D6DB"/>
<circle cx="262.5" cy="365.5" r="1.5" fill="#D2D6DB"/>
<circle cx="315.5" cy="365.5" r="1.5" fill="#D2D6DB"/>
<circle cx="368.5" cy="365.5" r="1.5" fill="#D2D6DB"/>
<circle cx="421.5" cy="365.5" r="1.5" fill="#D2D6DB"/>
<circle cx="474.5" cy="365.5" r="1.5" fill="#D2D6DB"/>
<circle cx="527.5" cy="365.5" r="1.5" fill="#D2D6DB"/>
<circle cx="580.5" cy="365.5" r="1.5" fill="#D2D6DB"/>
<circle cx="633.5" cy="365.5" r="1.5" fill="#D2D6DB"/>
<circle cx="686.5" cy="365.5" r="1.5" fill="#D2D6DB"/>
<circle cx="739.5" cy="365.5" r="1.5" fill="#D2D6DB"/>
<circle cx="792.5" cy="365.5" r="1.5" fill="#D2D6DB"/>
<circle cx="845.5" cy="365.5" r="1.5" fill="#D2D6DB"/>
<circle cx="898.5" cy="365.5" r="1.5" fill="#D2D6DB"/>
<circle cx="951.5" cy="365.5" r="1.5" fill="#D2D6DB"/>
<circle cx="1004.5" cy="365.5" r="1.5" fill="#D2D6DB"/>
<circle cx="1057.5" cy="365.5" r="1.5" fill="#D2D6DB"/>
<circle cx="1110.5" cy="365.5" r="1.5" fill="#D2D6DB"/>
<circle cx="1163.5" cy="365.5" r="1.5" fill="#D2D6DB"/>
<circle cx="1216.5" cy="365.5" r="1.5" fill="#D2D6DB"/>
<circle cx="1269.5" cy="365.5" r="1.5" fill="#D2D6DB"/>
<circle cx="1322.5" cy="365.5" r="1.5" fill="#D2D6DB"/>
<circle cx="1375.5" cy="365.5" r="1.5" fill="#D2D6DB"/>
<circle cx="50.5" cy="418.5" r="1.5" fill="#D2D6DB"/>
<circle cx="103.5" cy="418.5" r="1.5" fill="#D2D6DB"/>
<circle cx="156.5" cy="418.5" r="1.5" fill="#D2D6DB"/>
<circle cx="209.5" cy="418.5" r="1.5" fill="#D2D6DB"/>
<circle cx="262.5" cy="418.5" r="1.5" fill="#D2D6DB"/>
<circle cx="315.5" cy="418.5" r="1.5" fill="#D2D6DB"/>
<circle cx="368.5" cy="418.5" r="1.5" fill="#D2D6DB"/>
<circle cx="421.5" cy="418.5" r="1.5" fill="#D2D6DB"/>
<circle cx="474.5" cy="418.5" r="1.5" fill="#D2D6DB"/>
<circle cx="527.5" cy="418.5" r="1.5" fill="#D2D6DB"/>
<circle cx="580.5" cy="418.5" r="1.5" fill="#D2D6DB"/>
<circle cx="633.5" cy="418.5" r="1.5" fill="#D2D6DB"/>
<circle cx="686.5" cy="418.5" r="1.5" fill="#D2D6DB"/>
<circle cx="739.5" cy="418.5" r="1.5" fill="#D2D6DB"/>
<circle cx="792.5" cy="418.5" r="1.5" fill="#D2D6DB"/>
<circle cx="845.5" cy="418.5" r="1.5" fill="#D2D6DB"/>
<circle cx="898.5" cy="418.5" r="1.5" fill="#D2D6DB"/>
<circle cx="951.5" cy="418.5" r="1.5" fill="#D2D6DB"/>
<circle cx="1004.5" cy="418.5" r="1.5" fill="#D2D6DB"/>
<circle cx="1057.5" cy="418.5" r="1.5" fill="#D2D6DB"/>
<circle cx="1110.5" cy="418.5" r="1.5" fill="#D2D6DB"/>
<circle cx="1163.5" cy="418.5" r="1.5" fill="#D2D6DB"/>
<circle cx="1216.5" cy="418.5" r="1.5" fill="#D2D6DB"/>
<circle cx="1269.5" cy="418.5" r="1.5" fill="#D2D6DB"/>
<circle cx="1322.5" cy="418.5" r="1.5" fill="#D2D6DB"/>
<circle cx="1375.5" cy="418.5" r="1.5" fill="#D2D6DB"/>
<circle cx="50.5" cy="471.5" r="1.5" fill="#D2D6DB"/>
<circle cx="103.5" cy="471.5" r="1.5" fill="#D2D6DB"/>
<circle cx="156.5" cy="471.5" r="1.5" fill="#D2D6DB"/>
<circle cx="209.5" cy="471.5" r="1.5" fill="#D2D6DB"/>
<circle cx="262.5" cy="471.5" r="1.5" fill="#D2D6DB"/>
<circle cx="315.5" cy="471.5" r="1.5" fill="#D2D6DB"/>
<circle cx="368.5" cy="471.5" r="1.5" fill="#D2D6DB"/>
<circle cx="421.5" cy="471.5" r="1.5" fill="#D2D6DB"/>
<circle cx="474.5" cy="471.5" r="1.5" fill="#D2D6DB"/>
<circle cx="527.5" cy="471.5" r="1.5" fill="#D2D6DB"/>
<circle cx="580.5" cy="471.5" r="1.5" fill="#D2D6DB"/>
<circle cx="633.5" cy="471.5" r="1.5" fill="#D2D6DB"/>
<circle cx="686.5" cy="471.5" r="1.5" fill="#D2D6DB"/>
<circle cx="739.5" cy="471.5" r="1.5" fill="#D2D6DB"/>
<circle cx="792.5" cy="471.5" r="1.5" fill="#D2D6DB"/>
<circle cx="845.5" cy="471.5" r="1.5" fill="#D2D6DB"/>
<circle cx="898.5" cy="471.5" r="1.5" fill="#D2D6DB"/>
<circle cx="951.5" cy="471.5" r="1.5" fill="#D2D6DB"/>
<circle cx="1004.5" cy="471.5" r="1.5" fill="#D2D6DB"/>
<circle cx="1057.5" cy="471.5" r="1.5" fill="#D2D6DB"/>
<circle cx="1110.5" cy="471.5" r="1.5" fill="#D2D6DB"/>
<circle cx="1163.5" cy="471.5" r="1.5" fill="#D2D6DB"/>
<circle cx="1216.5" cy="471.5" r="1.5" fill="#D2D6DB"/>
<circle cx="1269.5" cy="471.5" r="1.5" fill="#D2D6DB"/>
<circle cx="1322.5" cy="471.5" r="1.5" fill="#D2D6DB"/>
<circle cx="1375.5" cy="471.5" r="1.5" fill="#D2D6DB"/>
<circle cx="50.5" cy="524.5" r="1.5" fill="#D2D6DB"/>
<circle cx="103.5" cy="524.5" r="1.5" fill="#D2D6DB"/>
<circle cx="156.5" cy="524.5" r="1.5" fill="#D2D6DB"/>
<circle cx="209.5" cy="524.5" r="1.5" fill="#D2D6DB"/>
<circle cx="262.5" cy="524.5" r="1.5" fill="#D2D6DB"/>
<circle cx="315.5" cy="524.5" r="1.5" fill="#D2D6DB"/>
<circle cx="368.5" cy="524.5" r="1.5" fill="#D2D6DB"/>
<circle cx="421.5" cy="524.5" r="1.5" fill="#D2D6DB"/>
<circle cx="474.5" cy="524.5" r="1.5" fill="#D2D6DB"/>
<circle cx="527.5" cy="524.5" r="1.5" fill="#D2D6DB"/>
<circle cx="580.5" cy="524.5" r="1.5" fill="#D2D6DB"/>
<circle cx="633.5" cy="524.5" r="1.5" fill="#D2D6DB"/>
<circle cx="686.5" cy="524.5" r="1.5" fill="#D2D6DB"/>
<circle cx="739.5" cy="524.5" r="1.5" fill="#D2D6DB"/>
<circle cx="792.5" cy="524.5" r="1.5" fill="#D2D6DB"/>
<circle cx="845.5" cy="524.5" r="1.5" fill="#D2D6DB"/>
<circle cx="898.5" cy="524.5" r="1.5" fill="#D2D6DB"/>
<circle cx="951.5" cy="524.5" r="1.5" fill="#D2D6DB"/>
<circle cx="1004.5" cy="524.5" r="1.5" fill="#D2D6DB"/>
<circle cx="1057.5" cy="524.5" r="1.5" fill="#D2D6DB"/>
<circle cx="1110.5" cy="524.5" r="1.5" fill="#D2D6DB"/>
<circle cx="1163.5" cy="524.5" r="1.5" fill="#D2D6DB"/>
<circle cx="1216.5" cy="524.5" r="1.5" fill="#D2D6DB"/>
<circle cx="1269.5" cy="524.5" r="1.5" fill="#D2D6DB"/>
<circle cx="1322.5" cy="524.5" r="1.5" fill="#D2D6DB"/>
<circle cx="1375.5" cy="524.5" r="1.5" fill="#D2D6DB"/>
<circle cx="50.5" cy="577.5" r="1.5" fill="#D2D6DB"/>
<circle cx="103.5" cy="577.5" r="1.5" fill="#D2D6DB"/>
<circle cx="156.5" cy="577.5" r="1.5" fill="#D2D6DB"/>
<circle cx="209.5" cy="577.5" r="1.5" fill="#D2D6DB"/>
<circle cx="262.5" cy="577.5" r="1.5" fill="#D2D6DB"/>
<circle cx="315.5" cy="577.5" r="1.5" fill="#D2D6DB"/>
<circle cx="368.5" cy="577.5" r="1.5" fill="#D2D6DB"/>
<circle cx="421.5" cy="577.5" r="1.5" fill="#D2D6DB"/>
<circle cx="474.5" cy="577.5" r="1.5" fill="#D2D6DB"/>
<circle cx="527.5" cy="577.5" r="1.5" fill="#D2D6DB"/>
<circle cx="580.5" cy="577.5" r="1.5" fill="#D2D6DB"/>
<circle cx="633.5" cy="577.5" r="1.5" fill="#D2D6DB"/>
<circle cx="686.5" cy="577.5" r="1.5" fill="#D2D6DB"/>
<circle cx="739.5" cy="577.5" r="1.5" fill="#D2D6DB"/>
<circle cx="792.5" cy="577.5" r="1.5" fill="#D2D6DB"/>
<circle cx="845.5" cy="577.5" r="1.5" fill="#D2D6DB"/>
<circle cx="898.5" cy="577.5" r="1.5" fill="#D2D6DB"/>
<circle cx="951.5" cy="577.5" r="1.5" fill="#D2D6DB"/>
<circle cx="1004.5" cy="577.5" r="1.5" fill="#D2D6DB"/>
<circle cx="1057.5" cy="577.5" r="1.5" fill="#D2D6DB"/>
<circle cx="1110.5" cy="577.5" r="1.5" fill="#D2D6DB"/>
<circle cx="1163.5" cy="577.5" r="1.5" fill="#D2D6DB"/>
<circle cx="1216.5" cy="577.5" r="1.5" fill="#D2D6DB"/>
<circle cx="1269.5" cy="577.5" r="1.5" fill="#D2D6DB"/>
<circle cx="1322.5" cy="577.5" r="1.5" fill="#D2D6DB"/>
<circle cx="1375.5" cy="577.5" r="1.5" fill="#D2D6DB"/>
<circle cx="50.5" cy="630.5" r="1.5" fill="#D2D6DB"/>
<circle cx="103.5" cy="630.5" r="1.5" fill="#D2D6DB"/>
<circle cx="156.5" cy="630.5" r="1.5" fill="#D2D6DB"/>
<circle cx="209.5" cy="630.5" r="1.5" fill="#D2D6DB"/>
<circle cx="262.5" cy="630.5" r="1.5" fill="#D2D6DB"/>
<circle cx="315.5" cy="630.5" r="1.5" fill="#D2D6DB"/>
<circle cx="368.5" cy="630.5" r="1.5" fill="#D2D6DB"/>
<circle cx="421.5" cy="630.5" r="1.5" fill="#D2D6DB"/>
<circle cx="474.5" cy="630.5" r="1.5" fill="#D2D6DB"/>
<circle cx="527.5" cy="630.5" r="1.5" fill="#D2D6DB"/>
<circle cx="580.5" cy="630.5" r="1.5" fill="#D2D6DB"/>
<circle cx="633.5" cy="630.5" r="1.5" fill="#D2D6DB"/>
<circle cx="686.5" cy="630.5" r="1.5" fill="#D2D6DB"/>
<circle cx="739.5" cy="630.5" r="1.5" fill="#D2D6DB"/>
<circle cx="792.5" cy="630.5" r="1.5" fill="#D2D6DB"/>
<circle cx="845.5" cy="630.5" r="1.5" fill="#D2D6DB"/>
<circle cx="898.5" cy="630.5" r="1.5" fill="#D2D6DB"/>
<circle cx="951.5" cy="630.5" r="1.5" fill="#D2D6DB"/>
<circle cx="1004.5" cy="630.5" r="1.5" fill="#D2D6DB"/>
<circle cx="1057.5" cy="630.5" r="1.5" fill="#D2D6DB"/>
<circle cx="1110.5" cy="630.5" r="1.5" fill="#D2D6DB"/>
<circle cx="1163.5" cy="630.5" r="1.5" fill="#D2D6DB"/>
<circle cx="1216.5" cy="630.5" r="1.5" fill="#D2D6DB"/>
<circle cx="1269.5" cy="630.5" r="1.5" fill="#D2D6DB"/>
<circle cx="1322.5" cy="630.5" r="1.5" fill="#D2D6DB"/>
<circle cx="1375.5" cy="630.5" r="1.5" fill="#D2D6DB"/>
<circle cx="50.5" cy="683.5" r="1.5" fill="#D2D6DB"/>
<circle cx="103.5" cy="683.5" r="1.5" fill="#D2D6DB"/>
<circle cx="156.5" cy="683.5" r="1.5" fill="#D2D6DB"/>
<circle cx="209.5" cy="683.5" r="1.5" fill="#D2D6DB"/>
<circle cx="262.5" cy="683.5" r="1.5" fill="#D2D6DB"/>
<circle cx="315.5" cy="683.5" r="1.5" fill="#D2D6DB"/>
<circle cx="368.5" cy="683.5" r="1.5" fill="#D2D6DB"/>
<circle cx="421.5" cy="683.5" r="1.5" fill="#D2D6DB"/>
<circle cx="474.5" cy="683.5" r="1.5" fill="#D2D6DB"/>
<circle cx="527.5" cy="683.5" r="1.5" fill="#D2D6DB"/>
<circle cx="580.5" cy="683.5" r="1.5" fill="#D2D6DB"/>
<circle cx="633.5" cy="683.5" r="1.5" fill="#D2D6DB"/>
<circle cx="686.5" cy="683.5" r="1.5" fill="#D2D6DB"/>
<circle cx="739.5" cy="683.5" r="1.5" fill="#D2D6DB"/>
<circle cx="792.5" cy="683.5" r="1.5" fill="#D2D6DB"/>
<circle cx="845.5" cy="683.5" r="1.5" fill="#D2D6DB"/>
<circle cx="898.5" cy="683.5" r="1.5" fill="#D2D6DB"/>
<circle cx="951.5" cy="683.5" r="1.5" fill="#D2D6DB"/>
<circle cx="1004.5" cy="683.5" r="1.5" fill="#D2D6DB"/>
<circle cx="1057.5" cy="683.5" r="1.5" fill="#D2D6DB"/>
<circle cx="1110.5" cy="683.5" r="1.5" fill="#D2D6DB"/>
<circle cx="1163.5" cy="683.5" r="1.5" fill="#D2D6DB"/>
<circle cx="1216.5" cy="683.5" r="1.5" fill="#D2D6DB"/>
<circle cx="1269.5" cy="683.5" r="1.5" fill="#D2D6DB"/>
<circle cx="1322.5" cy="683.5" r="1.5" fill="#D2D6DB"/>
<circle cx="1375.5" cy="683.5" r="1.5" fill="#D2D6DB"/>
<circle cx="50.5" cy="736.5" r="1.5" fill="#D2D6DB"/>
<circle cx="103.5" cy="736.5" r="1.5" fill="#D2D6DB"/>
<circle cx="156.5" cy="736.5" r="1.5" fill="#D2D6DB"/>
<circle cx="209.5" cy="736.5" r="1.5" fill="#D2D6DB"/>
<circle cx="262.5" cy="736.5" r="1.5" fill="#D2D6DB"/>
<circle cx="315.5" cy="736.5" r="1.5" fill="#D2D6DB"/>
<circle cx="368.5" cy="736.5" r="1.5" fill="#D2D6DB"/>
<circle cx="421.5" cy="736.5" r="1.5" fill="#D2D6DB"/>
<circle cx="474.5" cy="736.5" r="1.5" fill="#D2D6DB"/>
<circle cx="527.5" cy="736.5" r="1.5" fill="#D2D6DB"/>
<circle cx="580.5" cy="736.5" r="1.5" fill="#D2D6DB"/>
<circle cx="633.5" cy="736.5" r="1.5" fill="#D2D6DB"/>
<circle cx="686.5" cy="736.5" r="1.5" fill="#D2D6DB"/>
<circle cx="739.5" cy="736.5" r="1.5" fill="#D2D6DB"/>
<circle cx="792.5" cy="736.5" r="1.5" fill="#D2D6DB"/>
<circle cx="845.5" cy="736.5" r="1.5" fill="#D2D6DB"/>
<circle cx="898.5" cy="736.5" r="1.5" fill="#D2D6DB"/>
<circle cx="951.5" cy="736.5" r="1.5" fill="#D2D6DB"/>
<circle cx="1004.5" cy="736.5" r="1.5" fill="#D2D6DB"/>
<circle cx="1057.5" cy="736.5" r="1.5" fill="#D2D6DB"/>
<circle cx="1110.5" cy="736.5" r="1.5" fill="#D2D6DB"/>
<circle cx="1163.5" cy="736.5" r="1.5" fill="#D2D6DB"/>
<circle cx="1216.5" cy="736.5" r="1.5" fill="#D2D6DB"/>
<circle cx="1269.5" cy="736.5" r="1.5" fill="#D2D6DB"/>
<circle cx="1322.5" cy="736.5" r="1.5" fill="#D2D6DB"/>
<circle cx="1375.5" cy="736.5" r="1.5" fill="#D2D6DB"/>
<circle cx="50.5" cy="789.5" r="1.5" fill="#D2D6DB"/>
<circle cx="103.5" cy="789.5" r="1.5" fill="#D2D6DB"/>
<circle cx="156.5" cy="789.5" r="1.5" fill="#D2D6DB"/>
<circle cx="209.5" cy="789.5" r="1.5" fill="#D2D6DB"/>
<circle cx="262.5" cy="789.5" r="1.5" fill="#D2D6DB"/>
<circle cx="315.5" cy="789.5" r="1.5" fill="#D2D6DB"/>
<circle cx="368.5" cy="789.5" r="1.5" fill="#D2D6DB"/>
<circle cx="421.5" cy="789.5" r="1.5" fill="#D2D6DB"/>
<circle cx="474.5" cy="789.5" r="1.5" fill="#D2D6DB"/>
<circle cx="527.5" cy="789.5" r="1.5" fill="#D2D6DB"/>
<circle cx="580.5" cy="789.5" r="1.5" fill="#D2D6DB"/>
<circle cx="633.5" cy="789.5" r="1.5" fill="#D2D6DB"/>
<circle cx="686.5" cy="789.5" r="1.5" fill="#D2D6DB"/>
<circle cx="739.5" cy="789.5" r="1.5" fill="#D2D6DB"/>
<circle cx="792.5" cy="789.5" r="1.5" fill="#D2D6DB"/>
<circle cx="845.5" cy="789.5" r="1.5" fill="#D2D6DB"/>
<circle cx="898.5" cy="789.5" r="1.5" fill="#D2D6DB"/>
<circle cx="951.5" cy="789.5" r="1.5" fill="#D2D6DB"/>
<circle cx="1004.5" cy="789.5" r="1.5" fill="#D2D6DB"/>
<circle cx="1057.5" cy="789.5" r="1.5" fill="#D2D6DB"/>
<circle cx="1110.5" cy="789.5" r="1.5" fill="#D2D6DB"/>
<circle cx="1163.5" cy="789.5" r="1.5" fill="#D2D6DB"/>
<circle cx="1216.5" cy="789.5" r="1.5" fill="#D2D6DB"/>
<circle cx="1269.5" cy="789.5" r="1.5" fill="#D2D6DB"/>
<circle cx="1322.5" cy="789.5" r="1.5" fill="#D2D6DB"/>
<circle cx="1375.5" cy="789.5" r="1.5" fill="#D2D6DB"/>
<circle cx="50.5" cy="842.5" r="1.5" fill="#D2D6DB"/>
<circle cx="103.5" cy="842.5" r="1.5" fill="#D2D6DB"/>
<circle cx="156.5" cy="842.5" r="1.5" fill="#D2D6DB"/>
<circle cx="209.5" cy="842.5" r="1.5" fill="#D2D6DB"/>
<circle cx="262.5" cy="842.5" r="1.5" fill="#D2D6DB"/>
<circle cx="315.5" cy="842.5" r="1.5" fill="#D2D6DB"/>
<circle cx="368.5" cy="842.5" r="1.5" fill="#D2D6DB"/>
<circle cx="421.5" cy="842.5" r="1.5" fill="#D2D6DB"/>
<circle cx="474.5" cy="842.5" r="1.5" fill="#D2D6DB"/>
<circle cx="527.5" cy="842.5" r="1.5" fill="#D2D6DB"/>
<circle cx="580.5" cy="842.5" r="1.5" fill="#D2D6DB"/>
<circle cx="633.5" cy="842.5" r="1.5" fill="#D2D6DB"/>
<circle cx="686.5" cy="842.5" r="1.5" fill="#D2D6DB"/>
<circle cx="739.5" cy="842.5" r="1.5" fill="#D2D6DB"/>
<circle cx="792.5" cy="842.5" r="1.5" fill="#D2D6DB"/>
<circle cx="845.5" cy="842.5" r="1.5" fill="#D2D6DB"/>
<circle cx="898.5" cy="842.5" r="1.5" fill="#D2D6DB"/>
<circle cx="951.5" cy="842.5" r="1.5" fill="#D2D6DB"/>
<circle cx="1004.5" cy="842.5" r="1.5" fill="#D2D6DB"/>
<circle cx="1057.5" cy="842.5" r="1.5" fill="#D2D6DB"/>
<circle cx="1110.5" cy="842.5" r="1.5" fill="#D2D6DB"/>
<circle cx="1163.5" cy="842.5" r="1.5" fill="#D2D6DB"/>
<circle cx="1216.5" cy="842.5" r="1.5" fill="#D2D6DB"/>
<circle cx="1269.5" cy="842.5" r="1.5" fill="#D2D6DB"/>
<circle cx="1322.5" cy="842.5" r="1.5" fill="#D2D6DB"/>
<circle cx="1375.5" cy="842.5" r="1.5" fill="#D2D6DB"/>
</g>
<defs>
<clipPath id="clip0_184_180">
<rect width="1342" height="838.75" fill="white" transform="translate(49 46)"/>
</clipPath>
</defs>
</svg>
