<svg width="85" height="85" viewBox="0 0 85 85" fill="none" xmlns="http://www.w3.org/2000/svg">
<g filter="url(#filter0_d_402_52)">
<circle cx="38.5" cy="36.5" r="29.5" fill="#FFFFFE"/>
</g>
<path d="M23.3123 29.7183C21.9482 29.7183 20.8628 30.8037 20.8628 32.1678V42.3712C20.8628 43.7352 21.9482 44.8207 23.3123 44.8207C24.6763 44.8207 25.7619 43.7352 25.7619 42.3712V32.1678C25.7619 30.8037 24.6763 29.7183 23.3123 29.7183V29.7183ZM51.8817 29.7183C50.5175 29.7183 49.4321 30.8037 49.4321 32.1678V42.3712C49.4321 43.7352 50.5175 44.8207 51.8817 44.8207C53.2458 44.8207 54.3312 43.7352 54.3312 42.3712V32.1678C54.3312 30.8037 53.2458 29.7183 51.8817 29.7183V29.7183Z" fill="#A4C639"/>
<path d="M33.5158 41.3621C32.1517 41.3621 31.0662 42.4475 31.0662 43.8117V54.015C31.0662 55.379 32.1517 56.4645 33.5158 56.4645C34.8798 56.4645 35.9653 55.379 35.9653 54.015V43.8117C35.9653 42.4475 34.8798 41.3621 33.5158 41.3621ZM41.6785 41.3621C40.3143 41.3621 39.2289 42.4475 39.2289 43.8117V54.015C39.2289 55.379 40.3143 56.4645 41.6785 56.4645C43.0426 56.4645 44.128 55.379 44.128 54.015V43.8117C44.128 42.4475 43.0426 41.3621 41.6785 41.3621Z" fill="#A4C639"/>
<path d="M30.8149 16.863C30.7569 16.8637 30.7001 16.8791 30.6498 16.9079C30.4751 17.0047 30.4178 17.2054 30.5147 17.3805L32.2404 20.4978C28.9206 22.2253 26.678 25.5081 26.6736 29.2757H48.5207C48.5162 25.5081 46.2738 22.2252 42.9539 20.4978L44.6795 17.3807C44.7765 17.2056 44.7191 17.0047 44.5444 16.9079C44.4941 16.8791 44.4373 16.8636 44.3793 16.863C44.2553 16.8616 44.1379 16.9236 44.0718 17.043L42.3236 20.194C40.8936 19.5598 39.2897 19.2037 37.5971 19.2037C35.9045 19.2037 34.3007 19.5596 32.8706 20.194L31.1224 17.043C31.0926 16.9877 31.0482 16.9417 30.9939 16.9099C30.9397 16.8781 30.8778 16.8619 30.815 16.863H30.8149ZM26.6736 30.1385V45.9726C26.6728 46.3196 26.7406 46.6633 26.8731 46.984C27.0056 47.3048 27.2 47.5962 27.4454 47.8415C27.6908 48.0869 27.9822 48.2814 28.303 48.4138C28.6237 48.5463 28.9674 48.614 29.3144 48.6133H45.8799C46.2269 48.614 46.5707 48.5462 46.8914 48.4138C47.2122 48.2814 47.5036 48.0869 47.749 47.8415C47.9943 47.5961 48.1888 47.3047 48.3213 46.9839C48.4537 46.6632 48.5215 46.3194 48.5207 45.9724V30.1386H26.6736V30.1385Z" fill="#A4C639"/>
<path d="M32.5554 23.4537C32.0567 23.4537 31.6438 23.8665 31.6438 24.3652C31.6438 24.864 32.0567 25.2768 32.5554 25.2768C33.0542 25.2768 33.467 24.864 33.467 24.3652C33.467 23.8665 33.0542 23.4537 32.5554 23.4537ZM42.6387 23.4537C42.1399 23.4537 41.7271 23.8665 41.7271 24.3652C41.7271 24.864 42.1399 25.2768 42.6387 25.2768C43.1374 25.2768 43.5503 24.864 43.5503 24.3652C43.5503 23.8665 43.1374 23.4537 42.6387 23.4537Z" fill="white"/>
<defs>
<filter id="filter0_d_402_52" x="0" y="0" width="85" height="85" filterUnits="userSpaceOnUse" color-interpolation-filters="sRGB">
<feFlood flood-opacity="0" result="BackgroundImageFix"/>
<feColorMatrix in="SourceAlpha" type="matrix" values="0 0 0 0 0 0 0 0 0 0 0 0 0 0 0 0 0 0 127 0" result="hardAlpha"/>
<feOffset dx="4" dy="6"/>
<feGaussianBlur stdDeviation="6.5"/>
<feComposite in2="hardAlpha" operator="out"/>
<feColorMatrix type="matrix" values="0 0 0 0 0.841667 0 0 0 0 0.841667 0 0 0 0 0.841667 0 0 0 0.25 0"/>
<feBlend mode="normal" in2="BackgroundImageFix" result="effect1_dropShadow_402_52"/>
<feBlend mode="normal" in="SourceGraphic" in2="effect1_dropShadow_402_52" result="shape"/>
</filter>
</defs>
</svg>
