<svg width="85" height="85" viewBox="0 0 85 85" fill="none" xmlns="http://www.w3.org/2000/svg">
<g filter="url('#filter0_d_402_182')">
<circle cx="38.5" cy="36.5" r="29.5" fill="#FFFFFE"></circle>
</g>
<path d="M38.6335 16C28.0813 16 28.7402 20.5246 28.7402 20.5246L28.7519 25.2122H38.8217V26.6195H24.7523C24.7523 26.6195 18 25.8623 18 36.3897C18 46.9173 23.8936 46.5439 23.8936 46.5439H27.4109V41.6587C27.4109 41.6587 27.2213 35.8314 33.2104 35.8314H43.1978C43.1978 35.8314 48.8091 35.921 48.8091 30.4693V21.4552C48.8091 21.4552 49.6613 16 38.6335 16ZM33.081 19.1523C33.319 19.1521 33.5547 19.1983 33.7745 19.2882C33.9944 19.3782 34.1942 19.5101 34.3625 19.6765C34.5307 19.8428 34.6642 20.0404 34.7551 20.2578C34.8461 20.4752 34.8928 20.7082 34.8926 20.9435C34.8928 21.1788 34.8461 21.4118 34.7551 21.6292C34.6642 21.8466 34.5307 22.0441 34.3625 22.2105C34.1942 22.3769 33.9944 22.5088 33.7745 22.5987C33.5547 22.6887 33.319 22.7349 33.081 22.7346C32.8431 22.7349 32.6074 22.6887 32.3875 22.5987C32.1677 22.5088 31.9679 22.3769 31.7996 22.2105C31.6313 22.0441 31.4979 21.8466 31.407 21.6292C31.316 21.4118 31.2693 21.1788 31.2695 20.9435C31.2693 20.7082 31.316 20.4752 31.407 20.2578C31.4979 20.0404 31.6313 19.8428 31.7996 19.6765C31.9679 19.5101 32.1677 19.3782 32.3875 19.2882C32.6074 19.1983 32.8431 19.1521 33.081 19.1523V19.1523Z" fill="url('#paint0_linear_402_182')"></path>
<path d="M38.9337 56.8852C49.4858 56.8852 48.827 52.3606 48.827 52.3606L48.8153 47.6731H38.7453V46.2658H52.8147C52.8147 46.2658 59.567 47.023 59.567 36.4953C59.567 25.9679 53.6734 26.3412 53.6734 26.3412H50.1561V31.2263C50.1561 31.2263 50.3457 37.0536 44.3566 37.0536H34.3692C34.3692 37.0536 28.7579 36.964 28.7579 42.4158V51.4301C28.7579 51.4301 27.9059 56.8852 38.9335 56.8852H38.9337ZM44.4861 53.7332C44.2482 53.7334 44.0125 53.6872 43.7926 53.5973C43.5727 53.5073 43.373 53.3754 43.2047 53.209C43.0364 53.0427 42.903 52.8451 42.812 52.6277C42.7211 52.4103 42.6744 52.1773 42.6746 51.942C42.6743 51.7067 42.721 51.4737 42.812 51.2563C42.9029 51.0388 43.0364 50.8413 43.2046 50.6749C43.3729 50.5085 43.5727 50.3766 43.7926 50.2866C44.0125 50.1967 44.2482 50.1505 44.4861 50.1507C44.7241 50.1505 44.9597 50.1966 45.1796 50.2866C45.3995 50.3765 45.5993 50.5085 45.7676 50.6748C45.9358 50.8412 46.0692 51.0387 46.1602 51.2561C46.2512 51.4736 46.2979 51.7066 46.2977 51.9418C46.2979 52.1771 46.2512 52.4101 46.1602 52.6275C46.0692 52.8449 45.9358 53.0425 45.7676 53.2089C45.5993 53.3752 45.3995 53.5072 45.1796 53.5971C44.9597 53.687 44.7241 53.7332 44.4861 53.733V53.7332Z" fill="url('#paint1_linear_402_182')"></path>
<defs>
<filter id="filter0_d_402_182" x="0" y="0" width="85" height="85" filterUnits="userSpaceOnUse" color-interpolation-filters="sRGB">
<feFlood flood-opacity="0" result="BackgroundImageFix"></feFlood>
<feColorMatrix in="SourceAlpha" type="matrix" values="0 0 0 0 0 0 0 0 0 0 0 0 0 0 0 0 0 0 127 0" result="hardAlpha"></feColorMatrix>
<feOffset dx="4" dy="6"></feOffset>
<feGaussianBlur stdDeviation="6.5"></feGaussianBlur>
<feComposite in2="hardAlpha" operator="out"></feComposite>
<feColorMatrix type="matrix" values="0 0 0 0 0.841667 0 0 0 0 0.841667 0 0 0 0 0.841667 0 0 0 0.25 0"></feColorMatrix>
<feBlend mode="normal" in2="BackgroundImageFix" result="effect1_dropShadow_402_182"></feBlend>
<feBlend mode="normal" in="SourceGraphic" in2="effect1_dropShadow_402_182" result="shape"></feBlend>
</filter>
<linearGradient id="paint0_linear_402_182" x1="21.9945" y1="19.6774" x2="42.3629" y2="40.072" gradientUnits="userSpaceOnUse">
<stop stop-color="#387EB8"></stop>
<stop offset="1" stop-color="#366994"></stop>
</linearGradient>
<linearGradient id="paint1_linear_402_182" x1="34.6388" y1="32.6256" x2="56.5235" y2="53.5493" gradientUnits="userSpaceOnUse">
<stop stop-color="#FFE052"></stop>
<stop offset="1" stop-color="#FFC331"></stop>
</linearGradient>
</defs>
</svg>
