<svg width="85" height="85" viewBox="0 0 85 85" fill="none" xmlns="http://www.w3.org/2000/svg">
<g filter="url('#filter0_d_402_95')">
<circle cx="38.5" cy="36.5" r="29.5" fill="#FFFFFE"></circle>
</g>
<path d="M33.2817 46.6399C33.2817 46.6399 31.7885 47.5203 34.3444 47.8182C37.4409 48.1764 39.0234 48.1251 42.4357 47.4702C42.4357 47.4702 43.3329 48.0405 44.5857 48.5346C36.9363 51.8586 27.2734 48.342 33.2817 46.6399" fill="#5382A1"></path>
<path d="M32.3467 42.3022C32.3467 42.3022 30.672 43.5593 33.2298 43.8275C36.5375 44.1734 39.1496 44.2018 43.6697 43.3193C43.6697 43.3193 44.2949 43.9619 45.278 44.3134C36.0293 47.0555 25.7279 44.5296 32.3467 42.3022" fill="#5382A1"></path>
<path d="M40.2268 34.9442C42.1117 37.1444 39.7316 39.1243 39.7316 39.1243C39.7316 39.1243 44.5175 36.6193 42.3196 33.4824C40.2668 30.5572 38.6925 29.1036 47.2148 24.0923C47.2148 24.0923 33.8376 27.4797 40.2268 34.9441" fill="#E76F00"></path>
<path d="M50.3439 49.8483C50.3439 49.8483 51.4489 50.7714 49.1268 51.4856C44.7115 52.8418 30.7496 53.2513 26.871 51.5396C25.4768 50.9247 28.0914 50.0713 28.9138 49.8921C29.7715 49.7035 30.2618 49.7387 30.2618 49.7387C28.7112 48.6312 20.2397 51.9133 25.9587 52.8532C41.5551 55.4177 54.3893 51.6985 50.3439 49.8483Z" fill="#5382A1"></path>
<path d="M33.9998 37.8081C33.9998 37.8081 26.8981 39.5184 31.485 40.1394C33.4217 40.4023 37.2825 40.3429 40.8789 40.0373C43.818 39.7861 46.7692 39.2515 46.7692 39.2515C46.7692 39.2515 45.7328 39.7015 44.9831 40.2206C37.7712 42.1438 23.8391 41.2491 27.85 39.2819C31.242 37.6195 34 37.8081 34 37.8081" fill="#5382A1"></path>
<path d="M46.7396 45.0282C54.0709 41.1656 50.6812 37.4537 48.3153 37.9538C47.7353 38.0761 47.4768 38.1821 47.4768 38.1821C47.4768 38.1821 47.6921 37.8403 48.1032 37.6923C52.7838 36.0238 56.3835 42.6131 46.5923 45.2228C46.5923 45.2229 46.7058 45.1202 46.7396 45.0282" fill="#5382A1"></path>
<path d="M42.3198 16.0001C42.3198 16.0001 46.38 20.1183 38.4689 26.4505C32.1252 31.5302 37.0224 34.4265 38.4663 37.7356C34.7633 34.3481 32.0458 31.3661 33.869 28.5907C36.5448 24.5165 43.9579 22.5412 42.3198 16" fill="#E76F00"></path>
<path d="M34.7202 55.4951C41.7573 55.9519 52.5634 55.2417 52.8194 51.8656C52.8194 51.8656 52.3274 53.1456 47.0036 54.1619C40.9973 55.3079 33.5895 55.1741 29.1958 54.4396C29.1959 54.4396 30.0952 55.1944 34.7203 55.4951" fill="#5382A1"></path>
<defs>
<filter id="filter0_d_402_95" x="0" y="0" width="85" height="85" filterUnits="userSpaceOnUse" color-interpolation-filters="sRGB">
<feFlood flood-opacity="0" result="BackgroundImageFix"></feFlood>
<feColorMatrix in="SourceAlpha" type="matrix" values="0 0 0 0 0 0 0 0 0 0 0 0 0 0 0 0 0 0 127 0" result="hardAlpha"></feColorMatrix>
<feOffset dx="4" dy="6"></feOffset>
<feGaussianBlur stdDeviation="6.5"></feGaussianBlur>
<feComposite in2="hardAlpha" operator="out"></feComposite>
<feColorMatrix type="matrix" values="0 0 0 0 0.841667 0 0 0 0 0.841667 0 0 0 0 0.841667 0 0 0 0.25 0"></feColorMatrix>
<feBlend mode="normal" in2="BackgroundImageFix" result="effect1_dropShadow_402_95"></feBlend>
<feBlend mode="normal" in="SourceGraphic" in2="effect1_dropShadow_402_95" result="shape"></feBlend>
</filter>
</defs>
</svg>
