<svg width="85" height="85" viewBox="0 0 85 85" fill="none" xmlns="http://www.w3.org/2000/svg">
<g filter="url('#filter0_d_402_111')">
<circle cx="38.5" cy="36.5" r="29.5" fill="#FFFFFE"></circle>
</g>
<rect x="22" y="25" width="34" height="24" fill="#90CAF9"></rect>
<path d="M26.2223 30.7777C26.6349 30.7777 27.0305 30.6138 27.3222 30.3221C27.614 30.0304 27.7779 29.6347 27.7779 29.2222C27.7779 28.8096 27.614 28.414 27.3222 28.1222C27.0305 27.8305 26.6349 27.6666 26.2223 27.6666C25.8097 27.6666 25.4141 27.8305 25.1224 28.1222C24.8306 28.414 24.6667 28.8096 24.6667 29.2222C24.6667 29.6347 24.8306 30.0304 25.1224 30.3221C25.4141 30.6138 25.8097 30.7777 26.2223 30.7777V30.7777Z" fill="#FFFFFE"></path>
<path d="M32.4444 29.2222C32.4444 29.6347 32.2805 30.0304 31.9888 30.3221C31.697 30.6138 31.3014 30.7777 30.8888 30.7777C30.4762 30.7777 30.0806 30.6138 29.7889 30.3221C29.4971 30.0304 29.3333 29.6347 29.3333 29.2222C29.3333 28.8096 29.4971 28.414 29.7889 28.1222C30.0806 27.8305 30.4762 27.6666 30.8888 27.6666C31.3014 27.6666 31.697 27.8305 31.9888 28.1222C32.2805 28.414 32.4444 28.8096 32.4444 29.2222V29.2222Z" fill="#FFFFFE"></path>
<path d="M35.5556 30.7777C35.9681 30.7777 36.3638 30.6138 36.6555 30.3221C36.9472 30.0304 37.1111 29.6347 37.1111 29.2222C37.1111 28.8096 36.9472 28.414 36.6555 28.1222C36.3638 27.8305 35.9681 27.6666 35.5556 27.6666C35.143 27.6666 34.7473 27.8305 34.4556 28.1222C34.1639 28.414 34 28.8096 34 29.2222C34 29.6347 34.1639 30.0304 34.4556 30.3221C34.7473 30.6138 35.143 30.7777 35.5556 30.7777V30.7777Z" fill="#FFFFFE"></path>
<path fill-rule="evenodd" clip-rule="evenodd" d="M24.6667 23C23.429 23 22.242 23.4917 21.3668 24.3668C20.4917 25.242 20 26.429 20 27.6667V46.3333C20 47.571 20.4917 48.758 21.3668 49.6332C22.242 50.5083 23.429 51 24.6667 51H52.6667C53.9043 51 55.0913 50.5083 55.9665 49.6332C56.8417 48.758 57.3333 47.571 57.3333 46.3333V27.6667C57.3333 26.429 56.8417 25.242 55.9665 24.3668C55.0913 23.4917 53.9043 23 52.6667 23H24.6667ZM52.6667 26.1111H24.6667C24.2541 26.1111 23.8584 26.275 23.5667 26.5667C23.275 26.8584 23.1111 27.2541 23.1111 27.6667V32.3333H54.2222V27.6667C54.2222 27.2541 54.0583 26.8584 53.7666 26.5667C53.4749 26.275 53.0792 26.1111 52.6667 26.1111ZM23.1111 46.3333V35.4444H54.2222V46.3333C54.2222 46.7459 54.0583 47.1416 53.7666 47.4333C53.4749 47.725 53.0792 47.8889 52.6667 47.8889H24.6667C24.2541 47.8889 23.8584 47.725 23.5667 47.4333C23.275 47.1416 23.1111 46.7459 23.1111 46.3333V46.3333Z" fill="#2196F3"></path>
<defs>
<filter id="filter0_d_402_111" x="0" y="0" width="85" height="85" filterUnits="userSpaceOnUse" color-interpolation-filters="sRGB">
<feFlood flood-opacity="0" result="BackgroundImageFix"></feFlood>
<feColorMatrix in="SourceAlpha" type="matrix" values="0 0 0 0 0 0 0 0 0 0 0 0 0 0 0 0 0 0 127 0" result="hardAlpha"></feColorMatrix>
<feOffset dx="4" dy="6"></feOffset>
<feGaussianBlur stdDeviation="6.5"></feGaussianBlur>
<feComposite in2="hardAlpha" operator="out"></feComposite>
<feColorMatrix type="matrix" values="0 0 0 0 0.841667 0 0 0 0 0.841667 0 0 0 0 0.841667 0 0 0 0.25 0"></feColorMatrix>
<feBlend mode="normal" in2="BackgroundImageFix" result="effect1_dropShadow_402_111"></feBlend>
<feBlend mode="normal" in="SourceGraphic" in2="effect1_dropShadow_402_111" result="shape"></feBlend>
</filter>
</defs>
</svg>
